<?xml version="1.0" encoding="UTF-8"?>
<svg width="336px" height="100px" viewBox="0 0 336 100" version="1.1" xmlns="http://www.w3.org/2000/svg" xmlns:xlink="http://www.w3.org/1999/xlink">
    <!-- Generator: Sketch 52.5 (67469) - http://www.bohemiancoding.com/sketch -->
    <title>skillthrive-logo-light</title>
    <desc>Created with Sketch.</desc>
    <g id="Page-1" stroke="none" stroke-width="1" fill="none" fill-rule="evenodd">
        <g id="skillthrive-logo-light" fill="#ECF0F1">
            <path d="M53.0513326,22.7042254 C56.721595,20.5915493 63.2371039,12.6514085 63.2371039,9.69366197 C63.2371039,7.93309859 62.5319622,6.26408451 59.5668416,6.26408451 C48.9086254,6.26408451 20.8439874,24.3591549 20.8439874,36.0669014 C20.8439874,37.6056338 21.4363064,39.3767606 24.2780273,39.3767606 C27.5921931,39.3767606 33.7516055,38.5492958 39.3186988,38.5492958 C45.2383631,38.5492958 49.8570409,41.1514085 52.2263169,44.6971831 L60.8643022,42.0985915 C63.7060231,41.2711268 69.6256873,40.443662 70.8103253,40.443662 C71.9949633,40.443662 72.4674082,41.1478873 72.4674082,42.0985915 C72.4345582,43.1498264 71.6227109,44.0119538 70.5741028,44.1091549 C68.9170199,44.3450704 64.4182162,45.056338 62.0489402,45.7640845 C59.6796642,46.471831 56.9578174,47.3028169 53.8798741,48.2464789 C54.0698911,49.0201497 54.1494191,49.8167667 54.1160965,50.6126761 C54.1160965,73.556338 26.9998741,99.693662 12.5515215,99.693662 C4.85490031,99.693662 0.00352570829,94.6091549 0.00352570829,88.2253521 C0.00352570829,80.4190141 6.04306401,70.25 22.1484995,58.778169 C30.6736621,52.7464789 39.2023505,49.0809859 46.6592235,46.4788732 C44.2899475,43.6408451 40.6196852,43.1690141 36.4734523,43.1690141 C31.2624554,43.1690141 26.4075551,44.2253521 22.5010703,44.2253521 C18.9471563,44.2253521 14.684575,41.8591549 14.684575,36.7746479 C14.684575,21.6338028 45.710808,1.76760563 60.8713536,1.76760563 C64.66149,1.76760563 68.8041973,3.88028169 68.8041973,8.15492958 C68.8041973,14.1866197 57.7898846,24.9471831 55.3042602,27.4330986 C53.6471773,28.971831 52.4625393,30.0352113 50.8054565,30.0352113 C49.1483736,30.0352113 48.199958,29.0880282 48.199958,27.4330986 C48.199958,25.778169 49.4974187,24.9507042 53.0513326,22.7042254 Z M48.6583001,50.1408451 C41.1979014,52.7429577 32.6727387,56.6478873 24.3837985,62.9119718 C9.70980063,73.9119718 5.32734523,81.9542254 5.32734523,87.3943662 C5.32734523,92.2429577 8.05271773,94.9647887 13.0239664,94.9647887 C24.3908499,94.9647887 49.0214481,70.8380282 49.0214481,52.8626761 C49.0173202,51.9436313 48.8952768,51.0289037 48.6583001,50.1408451 Z" id="Shape" fill-rule="nonzero"></path>
            <path d="M100.888143,48.1302817 C102.189129,46.3697183 103.257419,45.1725352 104.558405,45.1725352 C105.616118,45.1725352 106.09914,45.8767606 106.09914,46.8274648 C106.09914,47.8838028 105.746569,48.5880282 104.336285,50.2570423 C98.8890661,57 90.9385939,67.0492958 82.6672823,67.0492958 C76.2716474,67.0492958 72.0090661,59.0070423 72.0090661,56.4049296 C72.0090661,54.9964789 76.3915215,54.75 81.9550892,50.7288732 C84.3243652,49.0739437 86.6936411,46.943662 86.6936411,45.5246479 C86.6936411,44.5774648 85.9884995,43.6338028 85.0365582,43.6338028 C83.6262749,43.6338028 79.2332424,45.7464789 72.8411333,53.3309859 C68.8147744,57.8239437 65.7368311,62.0809859 65.7368311,64.9225352 C65.7368311,65.8697183 63.7236516,67.7605634 62.5390136,67.7605634 C61.3543757,67.7605634 59.4610703,67.1690141 59.4610703,64.4507042 C59.4610703,59.3661972 70.5917314,30.3908451 76.0318993,19.7323944 C81.3592445,9.20774648 88.5834208,0.454225352 94.8591815,0.454225352 C96.9746065,0.454225352 99.7140818,2.93661972 99.7140818,5.06690141 C99.7140818,8.26056338 97.8207765,15.1197183 90.2405037,26 C82.6602308,36.7605634 73.3171039,42.9014085 70.9372508,45.1584507 C70.3449318,45.75 68.0955299,50.3626761 68.0955299,51.665493 C68.0955299,51.7816901 68.0955299,51.9014085 68.215404,51.9014085 C68.5679748,51.9014085 69.400042,51.0739437 71.0571249,49.4190141 C79.226191,41.1408451 84.4548164,38.7746479 88.2273242,38.7746479 C89.9901784,38.7746479 91.8975866,40.7852113 91.8975866,43.2676056 C91.8975866,51.1901408 77.4421826,56.6478873 77.4421826,57.5774648 C77.4421826,58.9859155 79.9278069,62.5457746 83.8378174,62.5457746 C89.4013851,62.5598592 96.6079328,53.806338 100.888143,48.1302817 Z M80.5201259,21.5211268 C76.0213221,30.6267606 73.0597272,38.3133803 72.9398531,38.6690141 C73.8882686,37.9647887 80.8726967,31.6901408 87.0426863,22.9401408 C93.0822246,14.1901408 95.1976495,7.92253521 95.1976495,6.73943662 C95.1976495,5.44014085 94.4925079,5.08450704 93.5405666,5.08450704 C90.7023715,5.08450704 85.2551522,12.1690141 80.5201259,21.5211268 Z" id="Shape" fill-rule="nonzero"></path>
            <path d="M120.540441,48.1302817 C121.950724,46.3697183 122.909717,45.1725352 124.210703,45.1725352 C124.658866,45.1419931 125.098356,45.3065184 125.415992,45.623742 C125.733628,45.9409656 125.898368,46.3798837 125.867786,46.8274648 C125.867786,47.8838028 125.395341,48.5880282 124.104932,50.2570423 C118.42149,57 107.763274,67.0492958 101.84361,67.0492958 C99.8304302,67.0492958 96.9887093,64.9366197 96.9887093,61.0176056 C96.9605037,55.8309859 103.014145,44.2112676 103.96256,42.4507042 C105.263547,40.2042254 106.331836,38.3133803 107.869045,38.3133803 C108.926758,38.3133803 110.590892,39.1408451 110.590892,40.4260563 C110.590892,41.7112676 109.406254,42.9084507 108.34149,44.6830986 C105.735992,49.1760563 102.185603,57.4577465 102.185603,60.0598592 C102.185603,61.1161972 102.777922,62.4260563 104.301028,62.4260563 C107.752697,62.4401408 116.277859,53.806338 120.540441,48.1302817 Z M122.909717,20.4577465 C122.909717,23.2957746 119.711899,24.9507042 118.291039,24.9507042 C116.870178,24.9507042 116.277859,22.4683099 116.277859,20.8133803 C116.277859,19.1584507 117.934942,17.1478873 120.304218,17.1478873 C121.488856,17.1443662 122.909717,18.0915493 122.909717,20.4577465 Z" id="Shape" fill-rule="nonzero"></path>
            <path d="M145.879706,48.1302817 C147.28999,46.3697183 148.248982,45.1725352 149.549969,45.1725352 C149.998132,45.1419931 150.437621,45.3065184 150.755258,45.623742 C151.072894,45.9409656 151.237633,46.3798837 151.207051,46.8274648 C151.207051,47.8838028 150.734607,48.5880282 149.313746,50.2570423 C143.746653,57 133.448059,67.4049296 126.696327,67.4049296 C122.789843,67.4049296 118.171165,64.2112676 118.171165,58.7711268 C118.171165,48.7183099 125.867786,30.5070423 132.626569,18.915493 C139.730871,6.73239437 145.061742,0.704225352 151.693599,0.704225352 C153.943001,0.704225352 156.312277,3.18661972 156.312277,5.5528169 C156.312277,8.98239437 154.418972,16.1971831 145.890283,27.0774648 C138.193662,36.7746479 132.626569,40.6760563 127.415572,44.8169014 C125.300147,48.2464789 123.625435,54.8697183 123.625435,57.471831 C123.625435,60.9014085 124.926422,63.0316901 127.53192,63.0316901 C132.615992,63.0316901 141.617125,53.806338 145.879706,48.1302817 Z M136.878573,20.4577465 C130.602812,31.4577465 129.181952,36.4225352 128.825855,38.3169014 C130.36659,37.6126761 136.286254,32.4049296 142.681889,23.7711268 C149.669843,14.1901408 151.090703,10.6443662 151.090703,7.80633803 C151.090703,6.62323944 150.498384,6.15140845 149.327849,6.15140845 C147.773012,6.14788732 142.918111,9.45774648 136.878573,20.4577465 Z" id="Shape" fill-rule="nonzero"></path>
            <path d="M171.927639,48.1302817 C173.337922,46.3697183 174.296915,45.1725352 175.597901,45.1725352 C176.046065,45.1419931 176.485554,45.3065184 176.80319,45.623742 C177.120827,45.9409656 177.285566,46.3798837 177.254984,46.8274648 C177.254984,47.8838028 176.782539,48.5880282 175.361679,50.2570423 C169.794586,57 159.495992,67.4049296 152.74426,67.4049296 C148.837775,67.4049296 144.219098,64.2112676 144.219098,58.7711268 C144.219098,48.7183099 151.915719,30.5070423 158.674502,18.915493 C165.778804,6.73239437 171.106149,0.704225352 177.738006,0.704225352 C179.987408,0.704225352 182.356684,3.18661972 182.356684,5.5528169 C182.356684,8.98239437 180.459853,16.1971831 171.93469,27.0774648 C164.231018,36.778169 158.660399,40.6901408 153.452928,44.8204225 C151.337503,48.25 149.662791,54.8732394 149.662791,57.4753521 C149.662791,60.9049296 150.963778,63.0352113 153.569276,63.0352113 C158.660399,63.0316901 167.665058,53.806338 171.927639,48.1302817 Z M162.926506,20.4577465 C156.650745,31.4577465 155.229885,36.4225352 154.873788,38.3169014 C156.414523,37.6126761 162.334187,32.4049296 168.729822,23.7711268 C175.71425,14.1901408 177.138636,10.6443662 177.138636,7.80633803 C177.138636,6.62323944 176.546317,6.15140845 175.375782,6.15140845 C173.820944,6.14788732 168.966044,9.45774648 162.926506,20.4577465 Z" id="Shape" fill-rule="nonzero"></path>
            <path d="M189.094313,38.4330986 C186.954579,38.4112811 184.818396,38.2536865 182.698678,37.9612676 C177.487681,47.778169 173.344974,59.6021127 173.344974,65.7535211 C173.344974,67.2922535 174.050115,67.8661972 174.050115,68.9471831 C173.97789,70.3158433 172.815736,71.3712603 171.444617,71.3133803 C169.787534,71.3133803 168.602896,69.5528169 168.602896,66.584507 C168.602896,59.7253521 172.629255,48.3697183 178.429045,37.1373239 C176.888311,37.1373239 172.509381,35.7288732 172.509381,33.2359155 C172.500799,32.4488761 172.810066,31.6915715 173.367344,31.1350176 C173.924622,30.5784637 174.682912,30.2695979 175.470976,30.278169 C177.720378,30.278169 178.668793,32.2887324 180.681973,32.5246479 C183.40382,26.9647887 188.142371,20.3415493 191.340189,16.3274648 C193.455614,13.4894366 194.654355,12.306338 196.075215,12.306338 C197.61595,12.306338 198.680714,13.0105634 198.680714,14.4190141 C198.680714,15.8274648 198.444491,16.7852113 196.075215,18.556338 C194.062036,20.2112676 188.25872,27.306338 185.416999,33.3450704 C187.280977,33.7811936 189.186261,34.0172739 191.100441,34.0492958 C192.53533,34.0678124 193.967019,33.9093367 195.363022,33.5774648 C197.648083,28.7350928 200.218117,24.032034 203.059643,19.4929577 C210.876139,6.95774648 218.57276,0.334507042 223.42766,0.334507042 C225.677062,0.334507042 228.638657,2.22535211 228.638657,5.18309859 C228.638657,11.806338 221.886925,30.3732394 199.375278,37.5774648 C198.074292,39.8239437 193.099517,53.7746479 192.863295,54.6091549 C198.567891,47.6584507 206.384386,42.8028169 211.595383,42.8028169 C215.149297,42.8028169 216.330409,44.693662 216.330409,47.5316901 C216.330409,50.4894366 214.567555,56.7570423 214.567555,59.2394366 C214.567555,61.3521127 215.159874,62.5492958 216.936831,62.5492958 C221.199412,62.5492958 228.659811,53.7992958 232.922392,48.1126761 C234.226905,46.3521127 235.291668,45.1549296 236.476306,45.1549296 C237.660944,45.1549296 238.133389,45.8591549 238.133389,46.8098592 C238.133389,47.8661972 237.780818,48.5704225 236.370535,50.2394366 C230.687093,56.9823944 221.449738,67.2711268 215.530073,67.2711268 C210.795047,67.2711268 208.781868,64.5528169 208.781868,59.9401408 C208.781868,56.8661972 210.544722,51.1901408 210.544722,50.0070423 C210.544722,48.8239437 210.428374,47.8943662 208.781868,47.8943662 C203.570871,47.8943662 192.211039,59.6021127 190.42703,65.7535211 C189.721889,68.2359155 188.413851,69.0633803 186.992991,69.0633803 C185.688478,69.0633803 184.623715,67.6549296 184.623715,65.5140845 C184.623715,61.9647887 187.941406,50.6126761 193.388625,38.193662 C191.966073,38.3897971 190.529886,38.4698741 189.094313,38.4330986 Z M207.565498,21.0492958 C204.251333,26.4894366 200.933641,32.6408451 200.933641,32.6408451 C217.991018,26.2535211 224.266779,10.056338 224.266779,6.97535211 C224.266779,5.67605634 223.438237,5.32042254 222.503924,5.32042254 C219.302581,5.32042254 213.488688,11.4647887 207.569024,21.0492958 L207.565498,21.0492958 Z" id="Shape" fill-rule="nonzero"></path>
            <path d="M240.721259,39.9859155 C240.721259,41.3943662 239.064176,44.4788732 239.064176,45.5457746 C239.064176,45.7816901 239.064176,45.8978873 239.300399,45.8978873 C239.772844,45.8978873 240.12894,45.5457746 240.710682,44.9507042 C245.093137,40.3380282 248.527177,37.7359155 251.485247,37.7359155 C253.734648,37.7359155 255.747828,39.1443662 255.747828,41.8732394 C255.747828,45.5387324 254.56319,48.9683099 251.605121,48.9683099 C250.37985,48.9281572 249.395924,47.9455094 249.355719,46.721831 C249.355719,45.5387324 250.18426,44.1197183 250.18426,43.528169 C250.18426,43.056338 249.831689,42.7007042 249.126548,42.7007042 C247.469465,42.7007042 239.65297,50.2711268 235.862833,56.1830986 C233.137461,60.4401408 231.007933,67.2992958 229.939643,67.2992958 C228.755005,67.2992958 227.217796,65.7605634 227.217796,64.5809859 C227.217796,63.278169 229.111102,58.193662 230.888059,53.8204225 C232.781364,49.3274648 234.558321,44.8309859 235.15064,42.4647887 C235.979182,39.6267606 236.807723,38.2077465 238.468332,38.2077465 C239.656495,38.1971831 240.721259,39.0246479 240.721259,39.9859155 Z" id="Path"></path>
            <path d="M277.903379,48.1302817 C279.313662,46.3697183 280.272655,45.1725352 281.573641,45.1725352 C282.021805,45.1419931 282.461294,45.3065184 282.77893,45.623742 C283.096566,45.9409656 283.261306,46.3798837 283.230724,46.8274648 C283.230724,47.8838028 282.758279,48.5880282 281.46787,50.2570423 C275.784428,57 265.126212,67.0492958 259.206548,67.0492958 C257.193368,67.0492958 254.351647,64.9366197 254.351647,61.0176056 C254.337545,55.8309859 260.377083,44.2112676 261.325498,42.4507042 C262.626485,40.2042254 263.694774,38.3133803 265.231983,38.3133803 C266.289696,38.3133803 267.957356,39.1408451 267.957356,40.4260563 C267.957356,41.7112676 266.772718,42.9084507 265.707954,44.6830986 C263.102455,49.1760563 259.552067,57.4577465 259.552067,60.0598592 C259.552067,61.1161972 260.144386,62.4260563 261.667492,62.4260563 C265.112109,62.4401408 273.640797,53.806338 277.903379,48.1302817 Z M280.272655,20.4577465 C280.272655,23.2957746 277.074837,24.9507042 275.653977,24.9507042 C274.233116,24.9507042 273.640797,22.4683099 273.640797,20.8133803 C273.640797,19.1584507 275.29788,17.1478873 277.667156,17.1478873 C278.848269,17.1443662 280.272655,18.0915493 280.272655,20.4577465 Z" id="Shape" fill-rule="nonzero"></path>
            <path d="M284.528185,44.9366197 C284.528185,49.3133803 281.450241,59.1267606 281.450241,60.5457746 C281.450241,60.8978873 281.56659,61.3732394 282.155383,61.3732394 C285.116978,61.3732394 296.720084,46.7077465 296.720084,35.2359155 C296.720084,32.6338028 295.063001,31.2147887 295.063001,29.7957746 C295.063001,28.4964789 296.120714,27.0739437 297.432277,27.0739437 C298.84256,27.0739437 301.458636,27.3098592 301.458636,34.4049296 C301.458636,45.0492958 288.670892,66.6901408 280.4983,66.6901408 C278.248898,66.6901408 275.999496,64.5774648 275.999496,61.8415493 C275.999496,59.2394366 279.197314,51.1971831 279.197314,46.3485915 C279.197314,45.0492958 279.080965,44.9401408 279.080965,43.1549296 C279.080965,41.2640845 280.029381,40.1971831 281.450241,40.1971831 C282.518531,40.2077465 284.528185,41.9823944 284.528185,44.9366197 Z" id="Path"></path>
            <path d="M330.475215,48.1302817 C331.885498,46.3697183 332.960839,45.1725352 334.145477,45.1725352 C335.330115,45.1725352 335.80256,45.8767606 335.80256,46.8274648 C335.80256,47.8838028 335.330115,48.5880282 334.039706,50.2570423 C328.356264,57 318.646464,67.5105634 305.502623,67.5105634 C301.832361,67.5105634 298.398321,63.7253521 298.398321,59.9401408 C298.398321,58.7570423 298.04575,58.4014085 298.04575,57.221831 C298.04575,56.165493 298.994166,54.8556338 300.05893,54.3838028 C304.91383,43.1478873 312.846674,38.6549296 318.886212,38.6549296 C321.135614,38.6549296 323.741112,40.5457746 323.741112,42.7957746 C323.741112,48.8274648 313.438993,55.6866197 306.112571,57.3415493 C303.997146,57.8133803 303.863169,58.5246479 303.863169,59.7077465 C303.863169,60.8908451 304.568311,63.2570423 307.417083,63.2570423 C317.80382,63.2676056 326.212634,53.806338 330.475215,48.1302817 Z M305.372172,53.6901408 C309.514879,53.5704225 318.872109,46.9471831 318.872109,44.4647887 C318.872109,43.5176056 318.399664,43.2816901 317.461826,43.2816901 C313.791563,43.2816901 307.145603,50.8521127 305.372172,53.6901408 Z" id="Shape" fill-rule="nonzero"></path>
        </g>
    </g>
</svg>